<svg xmlns="http://www.w3.org/2000/svg" viewBox="0 0 512 512"><rect width="512" height="512" rx="112" fill="#080808"/><circle cx="256" cy="256" r="180" fill="#111116" stroke="#2e2e35" stroke-width="10"/><path fill="#ff3038" d="M256 78c-27 47-59 76-111 96 24 20 47 34 76 41-45 8-87 2-125-19 25 57 69 92 126 104-27 17-50 41-68 70 39-8 73-25 101-50-5 44-4 82 1 116 5-34 6-72 1-116 28 25 62 42 101 50-18-29-41-53-68-70 57-12 101-47 126-104-38 21-80 27-125 19 29-7 52-21 76-41-52-20-84-49-111-96z"/></svg>